#!OML:ASF G:\JayActor3\Patient Classification 1\Patient 1\Session 5\male.ASF
:FULLY-SPECIFIED
:DEGREES
575
root -33.8046 16.7465 -7.10732 932.964 -96.5269 -938.554
lowerback 1.55732 0.141421 3.97587
upperback 2.83074 0.158709 0.0908211
thorax 2.04863 0.144643 -2.13457
lowerneck -7.6901 -1.88634 1.97444
upperneck 6.11347 -2.88794 1.70388
head 3.32457 -1.32005 0.0590659
rclavicle 2.00027e-015 -7.95139e-016
rhumerus -25.4582 3.74677 -88.1388
rradius 39.2749
rwrist -4.67443
rhand -20.2198 -6.51638
rfingers 7.12502
rthumb 6.12766 -36.4078
lclavicle 2.00027e-015 -7.95139e-016
lhumerus -38.2477 13.2202 77.9589
lradius 21.9891
lwrist 9.22499
lhand -17.1265 14.2295
lfingers 7.12502
lthumb 9.11331 44.0126
rfemur -12.2954 3.86162 29.6643
rtibia 39.6589
rfoot -22.7722 -15.0322
rtoes 8.88304
lfemur -14.6646 -3.28749 -12.4278
ltibia 34.9765
lfoot -20.6559 -4.29622
ltoes -22.8688
576
root -33.873 16.7498 -7.09591 934.244 -96.4889 -939.843
lowerback 1.43241 0.1464 4.06897
upperback 2.82085 0.159638 0.122762
thorax 2.10923 0.147843 -2.15359
lowerneck -7.67464 -1.85208 2.00354
upperneck 6.30514 -2.84485 1.63727
head 3.38663 -1.29816 0.0334981
rclavicle 2.49102e-015 1.55052e-014
rhumerus -25.3657 3.87683 -88.2627
rradius 39.4936
rwrist -4.75514
rhand -20.1935 -6.51222
rfingers 7.12502
rthumb 6.15303 -36.4029
lclavicle 2.49102e-015 1.55052e-014
lhumerus -38.2093 13.4691 77.9033
lradius 21.687
lwrist 8.94227
lhand -17.0439 14.2424
lfingers 7.12502
lthumb 9.19301 44.022
rfemur -11.9317 3.82402 29.7599
rtibia 39.4979
rfoot -22.872 -14.8902
rtoes 8.85556
lfemur -14.3813 -3.48729 -12.3427
ltibia 34.2635
lfoot -19.8756 -4.73052
ltoes -21.3998
577
root -33.9404 16.7537 -7.0834 935.473 -96.4585 -941.089
lowerback 1.31458 0.14998 4.16202
upperback 2.80704 0.158828 0.156627
thorax 2.16172 0.149974 -2.17061
lowerneck -7.66333 -1.82056 2.0211
upperneck 6.51386 -2.80551 1.58017
head 3.45598 -1.27786 0.0126735
rclavicle 8.15017e-015 -1.66979e-014
rhumerus -25.311 4.01367 -88.385
rradius 39.7057
rwrist -4.81869
rhand -20.174 -6.49656
rfingers 7.12502
rthumb 6.17181 -36.3867
lclavicle 8.15017e-015 -1.66979e-014
lhumerus -38.1554 13.714 77.8622
lradius 21.3699
lwrist 8.60915
lhand -16.9455 14.236
lfingers 7.12502
lthumb 9.28796 44.0114
rfemur -11.5523 3.75556 29.8399
rtibia 39.3158
rfoot -22.9588 -14.7202
rtoes 8.8531
lfemur -14.0514 -3.64057 -12.2757
ltibia 33.63
lfoot -18.9132 -5.1309
ltoes -19.6959
578
root -34.0069 16.7581 -7.06991 936.57 -96.4273 -942.208
lowerback 1.19671 0.152705 4.24311
upperback 2.79271 0.156726 0.187086
thorax 2.21355 0.15127 -2.18445
lowerneck -7.64978 -1.79218 2.03349
upperneck 6.72831 -2.77065 1.53189
head 3.52736 -1.25963 -0.00462583
rclavicle -7.14382e-016 -1.11319e-014
rhumerus -25.2849 4.1516 -88.5073
rradius 39.9045
rwrist -4.85595
rhand -20.1535 -6.47714
rfingers 7.12502
rthumb 6.19158 -36.3667
lclavicle -7.14382e-016 -1.11319e-014
lhumerus -38.0748 13.9853 77.8174
lradius 21.0257
lwrist 8.19968
lhand -16.8316 14.2213
lfingers 7.12502
lthumb 9.39788 43.9918
rfemur -11.165 3.65741 29.8911
rtibia 39.1234
rfoot -23.0343 -14.5197
rtoes 8.86976
lfemur -13.6737 -3.75297 -12.2403
ltibia 33.0896
lfoot -17.9119 -5.43692
ltoes -17.9747
579
root -34.0721 16.7635 -7.05576 937.483 -96.3881 -943.147
lowerback 1.07921 0.153075 4.2994
upperback 2.77581 0.151654 0.210658
thorax 2.26215 0.150606 -2.19151
lowerneck -7.62279 -1.76459 2.04785
upperneck 6.94198 -2.73742 1.49125
head 3.59615 -1.24207 -0.0197104
rclavicle 1.28775e-014 -2.62396e-014
rhumerus -25.2868 4.29109 -88.6369
rradius 40.0802
rwrist -4.86936
rhand -20.1458 -6.44334
rfingers 7.12502
rthumb 6.19903 -36.3326
lclavicle 1.28775e-014 -2.62396e-014
lhumerus -37.9758 14.2817 77.7636
lradius 20.6673
lwrist 7.73547
lhand -16.707 14.2077
lfingers 7.12502
lthumb 9.51802 43.9728
rfemur -10.7739 3.54649 29.9086
rtibia 38.9253
rfoot -23.098 -14.3065
rtoes 8.89261
lfemur -13.2505 -3.84012 -12.2425
ltibia 32.6477
lfoot -17.0138 -5.62194
ltoes -16.3468
580
root -34.1363 16.7689 -7.04118 938.305 -96.3372 -944.001
lowerback 0.956785 0.155095 4.33405
upperback 2.76234 0.148433 0.230696
thorax 2.31705 0.150642 -2.19006
lowerneck -7.60628 -1.7375 2.03868
upperneck 7.16862 -2.70566 1.48021
head 3.67262 -1.2245 -0.0212066
rclavicle -5.57218e-015 1.19271e-015
rhumerus -25.3055 4.40875 -88.7668
rradius 40.2263
rwrist -4.83994
rhand -20.1365 -6.39186
rfingers 7.12502
rthumb 6.20803 -36.2809
lclavicle -5.57218e-015 1.19271e-015
lhumerus -37.8573 14.5742 77.7206
lradius 20.318
lwrist 7.26047
lhand -16.5807 14.2172
lfingers 7.12502
lthumb 9.6399 43.9767
rfemur -10.381 3.44014 29.9044
rtibia 38.7267
rfoot -23.1544 -14.0948
rtoes 8.91776
lfemur -12.7867 -3.90718 -12.2711
ltibia 32.2905
lfoot -16.3225 -5.67356
ltoes -14.936
581
root -34.1994 16.7754 -7.02693 939.151 -96.2787 -944.88
lowerback 0.828599 0.159186 4.35114
upperback 2.7534 0.147491 0.250896
thorax 2.37992 0.151656 -2.17856
lowerneck -7.59386 -1.71135 2.02476
upperneck 7.39539 -2.67604 1.48176
head 3.75046 -1.20766 -0.0178398
rclavicle 5.75233e-015 -1.19271e-015
rhumerus -25.3289 4.50521 -88.9009
rradius 40.3312
rwrist -4.78022
rhand -20.1336 -6.32582
rfingers 7.12502
rthumb 6.21088 -36.2148
lclavicle 5.75233e-015 -1.19271e-015
lhumerus -37.7191 14.8509 77.6936
lradius 19.992
lwrist 6.80308
lhand -16.4626 14.217
lfingers 7.12502
lthumb 9.75385 43.9712
rfemur -9.99129 3.36641 29.9007
rtibia 38.5266
rfoot -23.2088 -13.9113
rtoes 8.9459
lfemur -12.3074 -3.95862 -12.3027
ltibia 31.9883
lfoot -15.8457 -5.63911
ltoes -13.663
582
root -34.2614 16.7823 -7.01361 940.175 -96.2207 -945.938
lowerback 0.695895 0.167194 4.36224
upperback 2.74667 0.151258 0.276803
thorax 2.44791 0.15493 -2.15774
lowerneck -7.58295 -1.68621 2.00588
upperneck 7.62317 -2.64883 1.49745
head 3.8295 -1.19163 -0.00902122
rclavicle -5.59858e-015 -2.78299e-015
rhumerus -25.3597 4.57195 -89.0394
rradius 40.3927
rwrist -4.68527
rhand -20.1354 -6.26733
rfingers 7.12502
rthumb 6.2091 -36.1563
lclavicle -5.59858e-015 -2.78299e-015
lhumerus -37.57 15.0806 77.6961
lradius 19.7071
lwrist 6.40466
lhand -16.361 14.2379
lfingers 7.12502
lthumb 9.8519 43.9874
rfemur -9.60574 3.34794 29.9254
rtibia 38.3244
rfoot -23.2695 -13.7752
rtoes 8.99071
lfemur -11.818 -3.96197 -12.3123
ltibia 31.7026
lfoot -15.5434 -5.54079
ltoes -12.6944
583
root -34.3223 16.79 -7.00038 941.123 -96.1623 -946.922
lowerback 0.561723 0.174796 4.36028
upperback 2.74539 0.15432 0.299371
thorax 2.52224 0.157789 -2.13302
lowerneck -7.58081 -1.66761 1.97608
upperneck 7.85172 -2.63109 1.52843
head 3.91119 -1.17994 0.0062272
rclavicle 6.85497e-015 7.95139e-016
rhumerus -25.389 4.60214 -89.1786
rradius 40.4044
rwrist -4.5558
rhand -20.1376 -6.21008
rfingers 7.12502
rthumb 6.20695 -36.0991
lclavicle 6.85497e-015 7.95139e-016
lhumerus -37.3963 15.272 77.7267
lradius 19.4544
lwrist 6.06411
lhand -16.2797 14.2278
lfingers 7.12502
lthumb 9.93031 43.9736
rfemur -9.22138 3.34349 29.9452
rtibia 38.1175
rfoot -23.3358 -13.6638
rtoes 9.04906
lfemur -11.3236 -3.91298 -12.3272
ltibia 31.4005
lfoot -15.3197 -5.42416
ltoes -11.9581
584
root -34.3817 16.7988 -6.98749 942.028 -96.1097 -947.861
lowerback 0.427867 0.180704 4.35215
upperback 2.74447 0.155262 0.318617
thorax 2.5966 0.159498 -2.1083
lowerneck -7.58114 -1.65525 1.94651
upperneck 8.0818 -2.62306 1.56825
head 3.99431 -1.17269 0.0238795
rclavicle -1.64541e-015 1.51076e-014
rhumerus -25.4182 4.60462 -89.3226
rradius 40.356
rwrist -4.4019
rhand -20.1471 -6.1591
rfingers 7.12502
rthumb 6.19785 -36.0484
lclavicle -1.64541e-015 1.51076e-014
lhumerus -37.2067 15.4134 77.7831
lradius 19.2412
lwrist 5.79286
lhand -16.2063 14.2347
lfingers 7.12502
lthumb 10.0012 43.9771
rfemur -8.84431 3.3531 29.9692
rtibia 37.9066
rfoot -23.4003 -13.5912
rtoes 9.1244
lfemur -10.8362 -3.78211 -12.3373
ltibia 31.0605
lfoot -15.0594 -5.33786
ltoes -11.3353
